PathFileType	4	(X/Y/Z)	C:\Users\WrightLab\Desktop\Jo\P5V119.trc
DataRate	CameraRate	NumFrames	NumMarkers	Units	OrigDataRate	OrigDataStartFrame	OrigNumFrames
100.00	100.00	       35	19	mm	100.00	1	       569
Frame#	Time	Headset_Front			Headset_Back			Headset_Left			Headset_Right			Left_Shoulder			Right_Shoulder			Sternum			C7			Left Elbow			Right Elbow			Left Wrist			Right Wrist			Left ASIS			Right ASIS			S2			Left Knee			Right Knee			Left Ankle			Right Ankle			
		X1	Y1	Z1	X2	Y2	Z2	X3	Y3	Z3	X4	Y4	Z4	X5	Y5	Z5	X6	Y6	Z6	X7	Y7	Z7	X8	Y8	Z8	X9	Y9	Z9	X10	Y10	Z10	X11	Y11	Z11	X12	Y12	Z12	X13	Y13	Z13	X14	Y14	Z14	X15	Y15	Z15	X16	Y16	Z16	X17	Y17	Z17	X18	Y18	Z18	X19	Y19	Z19	

1	0.000				-294.19601	1634.73218	-990.39636													-183.90990	1316.63892	-1054.13342							-466.16095	1164.63440	-1190.19250	26.76337	1116.63428	-1023.71130	-366.75079	1037.09937	-1009.46436	-37.09724	931.94226	-1048.63574							11.22382	485.41013	-1094.81030	-351.56116	473.39456	-1069.67627							
2	0.010				-293.87280	1634.74475	-990.64380													-183.90990	1316.63892	-1054.13342							-466.12152	1164.60693	-1189.91541	27.32342	1116.68420	-1023.66040	-366.71786	1037.12537	-1009.45056	-37.04718	931.61774	-1048.78137							11.46592	485.44656	-1094.60986	-351.71393	473.78595	-1069.91943							
3	0.020				-293.53351	1634.70776	-990.58685													-183.90990	1316.63892	-1054.13342							-466.09689	1164.59253	-1189.65820	27.32342	1116.68420	-1023.66040	-366.76382	1037.54492	-1009.27527	-37.04838	931.50745	-1048.90588							11.68371	485.37207	-1094.56482	-351.68997	473.81400	-1070.12085							
4	0.030				-293.17453	1634.62317	-990.22430													-183.39116	1316.74731	-1054.17310							-466.04526	1164.76843	-1189.56946	27.32342	1116.68420	-1023.66040	-366.54730	1037.28613	-1009.18396	-37.02643	931.50348	-1048.89709							12.12026	485.48120	-1094.52466	-351.67578	473.81799	-1069.90601							
5	0.040				-292.89325	1634.59363	-990.48883													-183.46262	1316.66113	-1054.49683							-465.89218	1164.93689	-1188.99988	27.04347	1116.68860	-1023.89227	-366.52649	1037.30212	-1009.17517	-36.62262	931.67755	-1048.90393							12.11663	485.47153	-1094.52332	-351.92880	474.27405	-1069.54016							
6	0.050				-292.56912	1634.61755	-990.73004													-183.46262	1316.66113	-1054.49683							-465.78912	1165.11621	-1188.92407	26.86880	1116.44055	-1024.24866	-365.80188	1037.13867	-1008.93195	-36.61129	931.67499	-1048.89929							12.34796	485.56177	-1094.28052	-351.36267	474.05219	-1069.54004							
7	0.060				-292.20877	1634.58362	-990.66852													-183.46262	1316.66113	-1054.49683							-465.74835	1165.12183	-1188.33655	27.22257	1116.25952	-1024.10388	-365.78027	1037.16028	-1008.92328	-36.60077	931.67975	-1048.89661							12.36406	485.55835	-1094.27246	-351.06482	473.73334	-1068.99268							
8	0.070				-291.78983	1634.78772	-990.69238													-183.46262	1316.66113	-1054.49683							-465.68591	1165.27209	-1188.19006	26.67002	1115.42407	-1024.36804	-365.64191	1037.61169	-1008.91913	-36.58731	931.68536	-1048.89307							12.41791	485.57852	-1094.25513	-351.04288	473.72821	-1068.98193							
9	0.080				-291.43643	1634.71570	-990.64032													-182.77884	1316.56885	-1054.48792							-465.53287	1165.54126	-1188.10498	26.42187	1115.38879	-1024.60657	-365.71658	1037.98853	-1008.77740	-36.56022	931.68628	-1048.88354							12.81405	486.13461	-1094.33252	-351.00623	473.71506	-1068.96338							
10	0.090				-291.06979	1634.83032	-990.83929													-182.71004	1316.73010	-1054.70410							-465.46234	1165.62134	-1187.86096	26.73771	1115.55029	-1024.98340	-365.36865	1037.86340	-1008.50446	-36.53979	931.69061	-1048.87720							12.77479	485.78592	-1093.77087	-351.03616	474.26022	-1069.01062							
11	0.100				-290.73026	1634.95154	-990.98053													-182.71004	1316.73010	-1054.70410							-465.42487	1165.69775	-1187.80627	26.67064	1115.30322	-1025.24829	-365.05511	1037.42896	-1008.37024	-36.53363	931.68903	-1048.87463							13.00120	485.70911	-1093.65930	-351.20251	474.17520	-1068.53711							
12	0.110				-290.31372	1635.13477	-990.73895													-181.81598	1316.38196	-1054.63342							-465.42844	1165.72888	-1187.55774	27.28422	1114.85327	-1026.39575	-365.13672	1038.08423	-1008.47919	-36.41494	931.58911	-1048.85352							13.13806	485.56631	-1093.60010	-351.15927	474.15710	-1068.51501							
13	0.120				-290.00732	1635.08813	-990.69043													-181.81598	1316.38196	-1054.63342							-465.31125	1165.89063	-1187.38538	28.03161	1114.76782	-1026.30945	-365.13507	1038.08325	-1008.47827	-36.25106	932.07990	-1049.21191							13.28057	485.85507	-1093.22388	-350.50223	473.77322	-1068.45215							
14	0.130				-289.65027	1635.02209	-990.63641													-181.81598	1316.38196	-1054.63342							-465.27490	1165.98230	-1187.33167	28.34524	1114.35754	-1026.38416	-365.33176	1038.36621	-1008.56213	-36.19275	931.55872	-1048.69714							13.40062	485.88391	-1093.18018	-350.87750	474.09793	-1068.25024							
15	0.140				-289.26648	1634.97168	-990.57397													-181.72998	1316.55798	-1054.72961							-465.17157	1166.23132	-1187.24475	28.34524	1114.35754	-1026.38416	-364.88483	1038.40271	-1008.39642	-36.37943	931.59418	-1048.84192							13.64017	485.60104	-1092.86780	-350.81448	474.15408	-1067.88550							
16	0.150				-288.86377	1635.30066	-990.85767													-181.72998	1316.55798	-1054.72961							-465.14996	1166.32434	-1187.21362	28.34524	1114.35754	-1026.38416	-364.56161	1038.24084	-1008.07800	-36.31472	931.65881	-1048.71375							13.51091	485.29794	-1092.48547	-350.71848	474.11395	-1067.57385							
17	0.160				-288.48306	1635.24561	-990.79688													-181.72998	1316.55798	-1054.72961							-465.07922	1166.46167	-1187.04749	28.54266	1114.23657	-1026.31995	-364.31653	1038.82715	-1009.08899	-35.86769	931.61310	-1049.22205							14.30915	485.49164	-1091.63086	-350.70416	474.11151	-1067.56702							
18	0.170				-288.14627	1635.22351	-990.73737													-181.38974	1316.83447	-1054.80884							-465.03821	1166.57666	-1186.80664	28.13564	1113.94678	-1026.90674	-364.96835	1038.71655	-1008.21484	-35.55347	931.95740	-1049.58386							14.42270	485.67688	-1091.45935	-350.71414	474.11423	-1067.57190							
19	0.180				-287.75891	1635.32556	-990.26208													-181.38974	1316.83447	-1054.80884							-464.98856	1166.78064	-1186.95007	29.54602	1114.72461	-1027.18652	-364.18292	1038.96448	-1008.99445	-36.34175	931.60748	-1048.83142							14.24402	485.42059	-1090.99573	-350.72729	474.05240	-1067.41455							
20	0.190				-287.40170	1635.41650	-990.09229													-181.38974	1316.83447	-1054.80884							-464.94940	1166.87122	-1186.89941	29.54602	1114.72461	-1027.18652	-364.17609	1038.23694	-1008.16724	-36.07253	931.99188	-1049.17200							14.02817	485.58734	-1090.45825	-350.72955	474.06314	-1067.41699							
21	0.200				-287.11002	1635.37256	-990.04596													-181.35532	1316.94092	-1055.09094							-464.89136	1167.07092	-1186.90271	29.31948	1114.79797	-1027.31543	-364.26691	1038.55847	-1008.33649	-35.74113	931.98529	-1049.72742							14.10629	485.61145	-1090.43152	-351.02194	473.87933	-1067.01404							
22	0.210				-286.80548	1635.35559	-989.99152													-181.35532	1316.94092	-1055.09094							-464.87708	1167.56335	-1187.09265	29.04733	1114.27661	-1027.62732	-364.49973	1039.36047	-1009.17584	-35.71803	931.99335	-1049.72095							14.64208	485.58029	-1090.68372	-351.00543	473.87888	-1067.00647							
23	0.220				-286.43320	1635.47217	-990.07416													-181.35532	1316.94092	-1055.09094							-464.82941	1167.69849	-1186.85254	29.10958	1114.89478	-1027.41052	-364.10812	1038.31958	-1008.25299	-35.81727	931.89417	-1049.91089							14.40003	485.73926	-1090.15527	-350.71603	474.06708	-1066.88318							
24	0.230				-286.09860	1635.45251	-990.01453													-181.35532	1316.94092	-1055.09094							-464.78308	1167.85999	-1186.77490	28.84418	1114.19971	-1027.86304	-363.55173	1038.43066	-1008.09802	-35.80986	931.89221	-1049.90784							15.04216	485.86032	-1090.09668	-350.88257	473.99884	-1066.48914							
25	0.240				-285.77042	1635.67212	-990.49994													-181.35532	1316.94092	-1055.09094							-464.72247	1168.03125	-1186.70129	28.90655	1114.81812	-1027.64624	-363.39493	1038.83362	-1008.30475	-35.80458	931.89813	-1049.90723							15.40896	485.72101	-1090.57642	-350.87637	474.00406	-1066.48694							
26	0.250				-285.44894	1635.78979	-990.61737													-181.35532	1316.94092	-1055.09094							-464.74374	1168.10522	-1186.69910	28.36053	1114.93567	-1027.72290	-363.36688	1038.82813	-1008.29041	-36.08573	931.56647	-1049.53650							15.44713	485.73593	-1090.56433	-350.87140	473.99548	-1066.48352							
27	0.260				-285.16803	1635.76648	-990.56885													-180.38330	1316.68201	-1055.04529							-464.73154	1168.19629	-1186.67468	28.36053	1114.93567	-1027.72290	-363.13947	1038.70154	-1008.35431	-35.68385	931.79315	-1049.88403							15.47246	485.73499	-1090.55286	-350.83774	474.03406	-1066.24072							
28	0.270				-284.87332	1635.90381	-990.59082													-180.38330	1316.68201	-1055.04529							-464.74005	1168.28467	-1186.64368	27.93501	1114.74988	-1027.73914	-363.26990	1038.89954	-1008.37445	-35.95368	931.47192	-1049.51147							14.90716	485.80179	-1089.63196	-350.85550	474.02484	-1066.06006							
29	0.280				-284.60532	1635.85046	-990.55115													-180.25223	1316.91211	-1054.93494							-464.69891	1168.37036	-1186.40356	27.88442	1114.49036	-1027.70398	-363.24463	1038.89136	-1008.36121	-35.88861	931.52032	-1049.39075							15.08621	485.43341	-1089.96570	-350.71573	474.12979	-1065.78406							
30	0.290				-284.34094	1635.81372	-990.50867													-180.14326	1317.12207	-1054.96899							-464.73740	1168.44226	-1186.38794	27.88442	1114.49036	-1027.70398	-363.13657	1038.96948	-1008.53119	-35.75131	931.41461	-1049.36035							15.05618	485.63339	-1090.01196	-350.59613	473.84344	-1065.47119							
31	0.300				-283.99994	1635.94141	-990.42053													-180.14326	1317.12207	-1054.96899							-464.69812	1168.59546	-1186.25073	27.82174	1113.87158	-1027.92090	-363.14395	1038.97180	-1008.53503	-35.73928	931.41058	-1049.35510							15.08720	485.42184	-1089.96167	-350.51044	474.25665	-1065.48816							
32	0.310				-283.71393	1635.94885	-990.36450													-180.14326	1317.12207	-1054.96899							-464.63696	1168.71057	-1186.05078	27.82174	1113.87158	-1027.92090	-362.90811	1038.85828	-1008.67200	-35.73750	931.41589	-1049.35571							15.39525	485.48529	-1090.50110	-350.65451	474.72318	-1065.01685							
33	0.320				-283.37231	1636.07800	-990.38342													-179.91042	1317.52112	-1054.70447							-464.65244	1168.78528	-1186.03735	27.35211	1113.46362	-1027.44495	-362.97903	1038.70642	-1008.27557	-35.52350	931.37415	-1049.19958							15.08405	485.42639	-1089.96448	-350.20572	474.17221	-1064.94214							
34	0.330				-283.06146	1636.03381	-990.33368													-179.83452	1317.61682	-1054.38672							-464.65195	1168.85352	-1186.01587	27.35211	1113.46362	-1027.44495	-362.67062	1039.30786	-1008.28198	-35.51063	931.37579	-1049.19543							15.48422	485.73196	-1090.54688	-350.36423	473.96649	-1065.16260							
35	0.340				-282.74484	1636.14783	-990.24902													-179.83452	1317.61682	-1054.38672							-464.62308	1168.93591	-1185.97522	27.35211	1113.46362	-1027.44495	-362.60986	1039.46899	-1008.57471	-35.43129	931.28119	-1048.97058							15.40197	485.49725	-1090.50183	-350.79895	474.51187	-1065.22998							
